ISO-10303-21;
HEADER;
FILE_DESCRIPTION (( 'STEP AP203' ),
    '1' );
FILE_NAME ('AV Bay PCB Outline supressed pin pads.STEP',
    '2025-10-18T16:42:43',
    ( '' ),
    ( '' ),
    'SwSTEP 2.0',
    'SolidWorks 2025',
    '' );
FILE_SCHEMA (( 'CONFIG_CONTROL_DESIGN' ));
ENDSEC;

DATA;
#1 = CARTESIAN_POINT ( 'NONE',  ( 7.102951435054617466E-18, 0.03070866141732288973, 1.495543307086614204 ) ) ;
#2 = EDGE_CURVE ( 'NONE', #190, #604, #501, .T. ) ;
#3 = CARTESIAN_POINT ( 'NONE',  ( -1.839566925000000408, 0.03070866141732283422, -1.197415131296954982 ) ) ;
#4 = APPROVAL_STATUS ( 'not_yet_approved' ) ;
#5 = DIRECTION ( 'NONE',  ( -0.000000000000000000, 1.000000000000000000, -0.000000000000000000 ) ) ;
#6 = ORIENTED_EDGE ( 'NONE', *, *, #540, .T. ) ;
#7 = ADVANCED_FACE ( 'NONE', ( #398 ), #599, .F. ) ;
#8 = ORIENTED_EDGE ( 'NONE', *, *, #95, .T. ) ;
#9 = VECTOR ( 'NONE', #74, 39.37007874015748854 ) ;
#10 = AXIS2_PLACEMENT_3D ( 'NONE', #494, #295, #11 ) ;
#11 = DIRECTION ( 'NONE',  ( 0.000000000000000000, 0.000000000000000000, 1.000000000000000000 ) ) ;
#12 = DIRECTION ( 'NONE',  ( 1.000000000000000000, -0.000000000000000000, 0.000000000000000000 ) ) ;
#13 = ADVANCED_FACE ( 'NONE', ( #495 ), #562, .F. ) ;
#14 =( NAMED_UNIT ( * ) SI_UNIT ( $, .STERADIAN. ) SOLID_ANGLE_UNIT ( ) );
#15 = LINE ( 'NONE', #197, #243 ) ;
#16 = LINE ( 'NONE', #3, #570 ) ;
#17 = DATE_TIME_ROLE ( 'creation_date' ) ;
#18 = EDGE_CURVE ( 'NONE', #582, #216, #206, .T. ) ;
#19 = DIRECTION ( 'NONE',  ( -0.7071067811865474617, -0.000000000000000000, 0.7071067811865474617 ) ) ;
#20 = LINE ( 'NONE', #360, #356 ) ;
#21 = ORIENTED_EDGE ( 'NONE', *, *, #149, .T. ) ;
#22 = VECTOR ( 'NONE', #221, 39.37007874015748143 ) ;
#23 = CARTESIAN_POINT ( 'NONE',  ( -1.518491028148477362, 0.03070866141732283422, -1.518491028148477362 ) ) ;
#24 = CARTESIAN_POINT ( 'NONE',  ( 1.839566925000000186, 0.03070866141732283422, 1.578543307086614167 ) ) ;
#25 = FACE_OUTER_BOUND ( 'NONE', #331, .T. ) ;
#26 = MANIFOLD_SOLID_BREP ( 'Chamfer1', #493 ) ;
#27 = CARTESIAN_POINT ( 'NONE',  ( -1.563976373818898091, -0.03070866141732283422, -1.653543307086614789 ) ) ;
#28 = EDGE_CURVE ( 'NONE', #135, #576, #157, .T. ) ;
#29 = PLANE ( 'NONE',  #625 ) ;
#30 = LINE ( 'NONE', #566, #125 ) ;
#31 = ORIENTED_EDGE ( 'NONE', *, *, #637, .T. ) ;
#32 = AXIS2_PLACEMENT_3D ( 'NONE', #189, #187, #134 ) ;
#33 = CARTESIAN_POINT ( 'NONE',  ( -1.563976373818898091, 0.03070866141732283422, -1.347415131296955559 ) ) ;
#34 = VERTEX_POINT ( 'NONE', #546 ) ;
#35 = EDGE_CURVE ( 'NONE', #448, #282, #87, .T. ) ;
#36 = PLANE ( 'NONE',  #32 ) ;
#37 = ORIENTED_EDGE ( 'NONE', *, *, #280, .T. ) ;
#38 = EDGE_CURVE ( 'NONE', #216, #247, #311, .T. ) ;
#39 = LINE ( 'NONE', #234, #342 ) ;
#40 = VERTEX_POINT ( 'NONE', #196 ) ;
#41 = CARTESIAN_POINT ( 'NONE',  ( -1.563976373818898091, -0.03070866141732283422, -1.653543307086614789 ) ) ;
#42 = VERTEX_POINT ( 'NONE', #250 ) ;
#43 = AXIS2_PLACEMENT_3D ( 'NONE', #516, #166, #359 ) ;
#44 = LINE ( 'NONE', #140, #294 ) ;
#45 = ORIENTED_EDGE ( 'NONE', *, *, #249, .T. ) ;
#46 = UNCERTAINTY_MEASURE_WITH_UNIT (LENGTH_MEASURE( 1.000000000000000082E-05 ), #64, 'distance_accuracy_value', 'NONE');
#47 = LINE ( 'NONE', #91, #419 ) ;
#48 = VERTEX_POINT ( 'NONE', #555 ) ;
#49 = CARTESIAN_POINT ( 'NONE',  ( -1.839566925000000408, 0.03070866141732283422, -1.197415131296954982 ) ) ;
#50 = ORIENTED_EDGE ( 'NONE', *, *, #481, .F. ) ;
#51 = VECTOR ( 'NONE', #588, 39.37007874015748143 ) ;
#52 =( GEOMETRIC_REPRESENTATION_CONTEXT ( 3 ) GLOBAL_UNCERTAINTY_ASSIGNED_CONTEXT ( ( #46 ) ) GLOBAL_UNIT_ASSIGNED_CONTEXT ( ( #64, #602, #14 ) ) REPRESENTATION_CONTEXT ( 'NONE', 'WORKASPACE' ) );
#53 = EDGE_CURVE ( 'NONE', #543, #145, #16, .T. ) ;
#54 = ORIENTED_EDGE ( 'NONE', *, *, #53, .T. ) ;
#55 = PERSON_AND_ORGANIZATION_ROLE ( 'creator' ) ;
#56 = CC_DESIGN_PERSON_AND_ORGANIZATION_ASSIGNMENT ( #245, #69, ( #451 ) ) ;
#57 = DIRECTION ( 'NONE',  ( 0.000000000000000000, 1.000000000000000000, 0.000000000000000000 ) ) ;
#58 = DIRECTION ( 'NONE',  ( -0.000000000000000000, 1.000000000000000000, -0.000000000000000000 ) ) ;
#59 = APPROVAL_STATUS ( 'not_yet_approved' ) ;
#60 = DIRECTION ( 'NONE',  ( 1.000000000000000000, -0.000000000000000000, 0.000000000000000000 ) ) ;
#61 = ORIENTED_EDGE ( 'NONE', *, *, #62, .T. ) ;
#62 = EDGE_CURVE ( 'NONE', #514, #636, #610, .T. ) ;
#63 = VECTOR ( 'NONE', #519, 39.37007874015748854 ) ;
#64 =( CONVERSION_BASED_UNIT ( 'INCH', #204 ) LENGTH_UNIT ( ) NAMED_UNIT ( #194 ) );
#65 = LOCAL_TIME ( 10, 42, 43.00000000000000000, #150 ) ;
#66 = DIRECTION ( 'NONE',  ( 0.7071067811865501263, -0.000000000000000000, -0.7071067811865449082 ) ) ;
#67 = ORIENTED_EDGE ( 'NONE', *, *, #18, .T. ) ;
#68 = APPROVAL ( #59, 'UNSPECIFIED' ) ;
#69 = PERSON_AND_ORGANIZATION_ROLE ( 'design_supplier' ) ;
#70 = CARTESIAN_POINT ( 'NONE',  ( 1.764566924999999564, -0.03070866141732283422, -1.272415131296955604 ) ) ;
#71 = ORIENTED_EDGE ( 'NONE', *, *, #144, .F. ) ;
#72 = ORIENTED_EDGE ( 'NONE', *, *, #634, .T. ) ;
#73 = CARTESIAN_POINT ( 'NONE',  ( -1.839566925000000408, -0.03070866141732283422, -1.653543307086614789 ) ) ;
#74 = DIRECTION ( 'NONE',  ( 0.7071067811865474617, -0.000000000000000000, 0.7071067811865474617 ) ) ;
#75 = EDGE_LOOP ( 'NONE', ( #90, #182, #578, #50 ) ) ;
#76 = VECTOR ( 'NONE', #530, 39.37007874015748143 ) ;
#77 = ADVANCED_FACE ( 'NONE', ( #162 ), #357, .F. ) ;
#78 = PLANE ( 'NONE',  #175 ) ;
#79 = CARTESIAN_POINT ( 'NONE',  ( 1.764566924999999564, 0.03070866141732283422, -1.272415131296955604 ) ) ;
#80 = ORIENTED_EDGE ( 'NONE', *, *, #491, .F. ) ;
#81 = CC_DESIGN_PERSON_AND_ORGANIZATION_ASSIGNMENT ( #207, #55, ( #451 ) ) ;
#82 = CARTESIAN_POINT ( 'NONE',  ( -1.839566925000000186, 0.03070866141732283422, 1.578543307086612613 ) ) ;
#83 = EDGE_LOOP ( 'NONE', ( #488, #480, #241, #364 ) ) ;
#84 = CARTESIAN_POINT ( 'NONE',  ( 1.839566925000000186, -0.03070866141732283422, 1.578543307086613057 ) ) ;
#85 = ADVANCED_FACE ( 'NONE', ( #523 ), #624, .F. ) ;
#86 = VERTEX_POINT ( 'NONE', #172 ) ;
#87 = CIRCLE ( 'NONE', #503, 0.05799999999999948946 ) ;
#88 = LOCAL_TIME ( 10, 42, 43.00000000000000000, #113 ) ;
#89 = CARTESIAN_POINT ( 'NONE',  ( 1.764566924999999564, -0.03070866141732283422, -1.272415131296955604 ) ) ;
#90 = ORIENTED_EDGE ( 'NONE', *, *, #517, .F. ) ;
#91 = CARTESIAN_POINT ( 'NONE',  ( 1.839566925000000186, 0.03070866141732283422, 1.578543307086614167 ) ) ;
#92 = EDGE_LOOP ( 'NONE', ( #171, #138, #404, #244 ) ) ;
#93 = PLANE ( 'NONE',  #601 ) ;
#94 = ORIENTED_EDGE ( 'NONE', *, *, #532, .F. ) ;
#95 = EDGE_CURVE ( 'NONE', #128, #152, #179, .T. ) ;
#96 = DIRECTION ( 'NONE',  ( -0.000000000000000000, 1.000000000000000000, 0.000000000000000000 ) ) ;
#97 = VECTOR ( 'NONE', #462, 39.37007874015748143 ) ;
#98 = EDGE_LOOP ( 'NONE', ( #478, #423 ) ) ;
#99 = CARTESIAN_POINT ( 'NONE',  ( 0.000000000000000000, 0.03070866141732288973, 1.611543307086613197 ) ) ;
#100 = VERTEX_POINT ( 'NONE', #84 ) ;
#101 = DIRECTION ( 'NONE',  ( 8.260587980841938780E-17, 0.000000000000000000, 1.000000000000000000 ) ) ;
#102 = EDGE_LOOP ( 'NONE', ( #388, #572, #409, #380 ) ) ;
#103 = PERSON ( 'UNSPECIFIED', 'UNSPECIFIED', 'UNSPECIFIED', ('UNSPECIFIED'), ('UNSPECIFIED'), ('UNSPECIFIED') ) ;
#104 = ORIENTED_EDGE ( 'NONE', *, *, #600, .T. ) ;
#105 = VECTOR ( 'NONE', #272, 39.37007874015748143 ) ;
#106 = VECTOR ( 'NONE', #603, 39.37007874015748143 ) ;
#107 = PERSON_AND_ORGANIZATION ( #103, #560 ) ;
#108 = DIRECTION ( 'NONE',  ( 0.7071067811865474617, -0.000000000000000000, 0.7071067811865474617 ) ) ;
#109 = DIRECTION ( 'NONE',  ( 0.000000000000000000, 1.000000000000000000, 0.000000000000000000 ) ) ;
#110 = DATE_AND_TIME ( #552, #529 ) ;
#111 = CARTESIAN_POINT ( 'NONE',  ( 0.000000000000000000, 0.03070866141732288973, 1.553543307086613812 ) ) ;
#112 = ORIENTED_EDGE ( 'NONE', *, *, #439, .F. ) ;
#113 = COORDINATED_UNIVERSAL_TIME_OFFSET ( 7, 0, .BEHIND. ) ;
#114 = VERTEX_POINT ( 'NONE', #124 ) ;
#115 = AXIS2_PLACEMENT_3D ( 'NONE', #307, #391, #557 ) ;
#116 = AXIS2_PLACEMENT_3D ( 'NONE', #569, #362, #265 ) ;
#117 = CALENDAR_DATE ( 2025, 18, 10 ) ;
#118 = DIRECTION ( 'NONE',  ( 0.000000000000000000, 0.000000000000000000, 1.000000000000000000 ) ) ;
#119 = CARTESIAN_POINT ( 'NONE',  ( 0.000000000000000000, -0.03070866141732283422, -1.272415131296955604 ) ) ;
#120 = LINE ( 'NONE', #465, #325 ) ;
#121 = LINE ( 'NONE', #575, #97 ) ;
#122 = ADVANCED_FACE ( 'NONE', ( #614 ), #262, .F. ) ;
#123 = FACE_OUTER_BOUND ( 'NONE', #102, .T. ) ;
#124 = CARTESIAN_POINT ( 'NONE',  ( 1.764566925000000008, -0.03070866141732283422, 1.653543307086613678 ) ) ;
#125 = VECTOR ( 'NONE', #367, 39.37007874015748143 ) ;
#126 = CARTESIAN_POINT ( 'NONE',  ( -1.638976373818897825, -0.03070866141732283422, -1.272415131296955604 ) ) ;
#127 = CARTESIAN_POINT ( 'NONE',  ( 1.764566925000000008, 0.03070866141732283422, 1.653543307086613678 ) ) ;
#128 = VERTEX_POINT ( 'NONE', #316 ) ;
#129 = LINE ( 'NONE', #27, #268 ) ;
#130 = ORIENTED_EDGE ( 'NONE', *, *, #239, .T. ) ;
#131 = CC_DESIGN_SECURITY_CLASSIFICATION ( #344, ( #451 ) ) ;
#132 = FACE_BOUND ( 'NONE', #98, .T. ) ;
#133 = ORIENTED_EDGE ( 'NONE', *, *, #390, .T. ) ;
#134 = DIRECTION ( 'NONE',  ( 0.000000000000000000, 0.000000000000000000, 1.000000000000000000 ) ) ;
#135 = VERTEX_POINT ( 'NONE', #126 ) ;
#136 = EDGE_CURVE ( 'NONE', #582, #114, #417, .T. ) ;
#137 = CARTESIAN_POINT ( 'NONE',  ( 1.839566925000000186, -0.03070866141732283422, 1.578543307086614167 ) ) ;
#138 = ORIENTED_EDGE ( 'NONE', *, *, #53, .F. ) ;
#139 = VECTOR ( 'NONE', #349, 39.37007874015748854 ) ;
#140 = CARTESIAN_POINT ( 'NONE',  ( -1.563976373818898091, -0.03070866141732283422, -1.347415131296955559 ) ) ;
#141 = VECTOR ( 'NONE', #12, 39.37007874015748143 ) ;
#142 = ORIENTED_EDGE ( 'NONE', *, *, #95, .F. ) ;
#143 = CARTESIAN_POINT ( 'NONE',  ( 1.839566924999999742, 0.03070866141732283422, -1.197415131296955426 ) ) ;
#144 = EDGE_CURVE ( 'NONE', #323, #279, #459, .T. ) ;
#145 = VERTEX_POINT ( 'NONE', #270 ) ;
#146 = DESIGN_CONTEXT ( 'detailed design', #434, 'design' ) ;
#147 = CARTESIAN_POINT ( 'NONE',  ( 0.000000000000000000, 0.03070866141732283422, -1.272415131296955604 ) ) ;
#148 = ORIENTED_EDGE ( 'NONE', *, *, #287, .F. ) ;
#149 = EDGE_CURVE ( 'NONE', #524, #582, #227, .T. ) ;
#150 = COORDINATED_UNIVERSAL_TIME_OFFSET ( 7, 0, .BEHIND. ) ;
#151 = LINE ( 'NONE', #554, #430 ) ;
#152 = VERTEX_POINT ( 'NONE', #79 ) ;
#153 = VECTOR ( 'NONE', #66, 39.37007874015748143 ) ;
#154 = VECTOR ( 'NONE', #414, 39.37007874015748854 ) ;
#155 = APPROVAL_ROLE ( '' ) ;
#156 = LINE ( 'NONE', #556, #334 ) ;
#157 = LINE ( 'NONE', #444, #139 ) ;
#158 = CALENDAR_DATE ( 2025, 18, 10 ) ;
#159 = VERTEX_POINT ( 'NONE', #374 ) ;
#160 = DIRECTION ( 'NONE',  ( 1.000000000000000000, 0.000000000000000000, 0.000000000000000000 ) ) ;
#161 = CARTESIAN_POINT ( 'NONE',  ( -1.709055116043306954, 0.03070866141732283422, 1.709055116043306954 ) ) ;
#162 = FACE_OUTER_BOUND ( 'NONE', #626, .T. ) ;
#163 = AXIS2_PLACEMENT_3D ( 'NONE', #509, #58, #447 ) ;
#164 = VECTOR ( 'NONE', #561, 39.37007874015748854 ) ;
#165 = COORDINATED_UNIVERSAL_TIME_OFFSET ( 7, 0, .BEHIND. ) ;
#166 = DIRECTION ( 'NONE',  ( 0.000000000000000000, 0.000000000000000000, 1.000000000000000000 ) ) ;
#167 = CARTESIAN_POINT ( 'NONE',  ( -1.839566925000000186, -0.03070866141732283422, 1.578543307086612613 ) ) ;
#168 = EDGE_CURVE ( 'NONE', #490, #282, #20, .T. ) ;
#169 = DIRECTION ( 'NONE',  ( 1.000000000000000000, 0.000000000000000000, 0.000000000000000000 ) ) ;
#170 = PLANE ( 'NONE',  #504 ) ;
#171 = ORIENTED_EDGE ( 'NONE', *, *, #600, .F. ) ;
#172 = CARTESIAN_POINT ( 'NONE',  ( 7.102951435054646740E-18, -0.03070866141732282728, 1.495543307086613760 ) ) ;
#173 = ORIENTED_EDGE ( 'NONE', *, *, #637, .F. ) ;
#174 = ADVANCED_FACE ( 'NONE', ( #527 ), #467, .F. ) ;
#175 = AXIS2_PLACEMENT_3D ( 'NONE', #622, #366, #310 ) ;
#176 = PLANE ( 'NONE',  #225 ) ;
#177 = DIRECTION ( 'NONE',  ( 1.000000000000000000, 0.000000000000000000, 0.000000000000000000 ) ) ;
#178 = ORIENTED_EDGE ( 'NONE', *, *, #412, .T. ) ;
#179 = LINE ( 'NONE', #568, #233 ) ;
#180 = ORIENTED_EDGE ( 'NONE', *, *, #235, .F. ) ;
#181 = CARTESIAN_POINT ( 'NONE',  ( 0.000000000000000000, 0.03070866141732283422, 0.000000000000000000 ) ) ;
#182 = ORIENTED_EDGE ( 'NONE', *, *, #634, .F. ) ;
#183 = AXIS2_PLACEMENT_3D ( 'NONE', #181, #425, #629 ) ;
#184 = LINE ( 'NONE', #137, #378 ) ;
#185 = ADVANCED_FACE ( 'NONE', ( #372 ), #170, .F. ) ;
#186 = EDGE_LOOP ( 'NONE', ( #418, #178, #290, #67, #361, #104, #617, #428, #531, #180, #438, #464, #296, #130 ) ) ;
#187 = DIRECTION ( 'NONE',  ( -1.000000000000000000, 0.000000000000000000, 0.000000000000000000 ) ) ;
#188 = EDGE_LOOP ( 'NONE', ( #112, #426, #382, #639 ) ) ;
#189 = CARTESIAN_POINT ( 'NONE',  ( 1.524606295078740015, -0.03070866141732283422, 0.000000000000000000 ) ) ;
#190 = VERTEX_POINT ( 'NONE', #212 ) ;
#191 = EDGE_CURVE ( 'NONE', #541, #34, #121, .T. ) ;
#192 = DIRECTION ( 'NONE',  ( 8.260587980841938780E-17, 0.000000000000000000, 1.000000000000000000 ) ) ;
#193 = ORIENTED_EDGE ( 'NONE', *, *, #298, .T. ) ;
#194 = DIMENSIONAL_EXPONENTS ( 1.000000000000000000, 0.000000000000000000, 0.000000000000000000, 0.000000000000000000, 0.000000000000000000, 0.000000000000000000, 0.000000000000000000 ) ;
#195 = DIRECTION ( 'NONE',  ( 0.000000000000000000, 0.000000000000000000, 1.000000000000000000 ) ) ;
#196 = CARTESIAN_POINT ( 'NONE',  ( -1.764566924999999564, -0.03070866141732283422, -1.272415131296955604 ) ) ;
#197 = CARTESIAN_POINT ( 'NONE',  ( -1.839566925000000408, 0.03070866141732283422, -1.653543307086614789 ) ) ;
#198 = CARTESIAN_POINT ( 'NONE',  ( 1.839566924999999742, 0.03070866141732283422, -1.197415131296955426 ) ) ;
#199 = PERSON_AND_ORGANIZATION_ROLE ( 'classification_officer' ) ;
#200 = CARTESIAN_POINT ( 'NONE',  ( -1.764566925000000008, 0.03070866141732283422, 1.653543307086613678 ) ) ;
#201 = ORIENTED_EDGE ( 'NONE', *, *, #203, .F. ) ;
#202 = VECTOR ( 'NONE', #109, 39.37007874015748143 ) ;
#203 = EDGE_CURVE ( 'NONE', #353, #159, #129, .T. ) ;
#204 = LENGTH_MEASURE_WITH_UNIT ( LENGTH_MEASURE( 0.02539999999999999897 ), #521 );
#205 = LINE ( 'NONE', #598, #106 ) ;
#206 = LINE ( 'NONE', #300, #590 ) ;
#207 = PERSON_AND_ORGANIZATION ( #103, #560 ) ;
#208 = DIRECTION ( 'NONE',  ( 0.000000000000000000, 0.000000000000000000, 1.000000000000000000 ) ) ;
#209 = DIRECTION ( 'NONE',  ( -0.000000000000000000, 1.000000000000000000, -0.000000000000000000 ) ) ;
#210 = DATE_AND_TIME ( #502, #538 ) ;
#211 = CARTESIAN_POINT ( 'NONE',  ( -1.764566925000000008, -0.03070866141732283422, 1.653543307086613678 ) ) ;
#212 = CARTESIAN_POINT ( 'NONE',  ( 1.599606295078739304, -0.03070866141732283422, -1.272415131296955604 ) ) ;
#213 = ORIENTED_EDGE ( 'NONE', *, *, #230, .F. ) ;
#214 = CARTESIAN_POINT ( 'NONE',  ( -1.563976373818898091, -0.03070866141732283422, 0.000000000000000000 ) ) ;
#215 = DIRECTION ( 'NONE',  ( -0.000000000000000000, 1.000000000000000000, -0.000000000000000000 ) ) ;
#216 = VERTEX_POINT ( 'NONE', #167 ) ;
#217 = PLANE ( 'NONE',  #43 ) ;
#218 = DIRECTION ( 'NONE',  ( 0.000000000000000000, -1.000000000000000000, 0.000000000000000000 ) ) ;
#219 = ORIENTED_EDGE ( 'NONE', *, *, #144, .T. ) ;
#220 = LINE ( 'NONE', #73, #592 ) ;
#221 = DIRECTION ( 'NONE',  ( 0.000000000000000000, -1.000000000000000000, 0.000000000000000000 ) ) ;
#222 = ORIENTED_EDGE ( 'NONE', *, *, #62, .F. ) ;
#223 = CC_DESIGN_PERSON_AND_ORGANIZATION_ASSIGNMENT ( #107, #445, ( #513 ) ) ;
#224 = APPLICATION_CONTEXT ( 'configuration controlled 3d designs of mechanical parts and assemblies' ) ;
#225 = AXIS2_PLACEMENT_3D ( 'NONE', #371, #118, #615 ) ;
#226 = AXIS2_PLACEMENT_3D ( 'NONE', #111, #5, #208 ) ;
#227 = LINE ( 'NONE', #422, #22 ) ;
#228 = DIRECTION ( 'NONE',  ( 0.000000000000000000, -1.000000000000000000, 0.000000000000000000 ) ) ;
#229 = VERTEX_POINT ( 'NONE', #127 ) ;
#230 = EDGE_CURVE ( 'NONE', #86, #490, #324, .T. ) ;
#231 = FACE_OUTER_BOUND ( 'NONE', #558, .T. ) ;
#232 = ORIENTED_EDGE ( 'NONE', *, *, #563, .T. ) ;
#233 = VECTOR ( 'NONE', #321, 39.37007874015748143 ) ;
#234 = CARTESIAN_POINT ( 'NONE',  ( 1.839566924999999742, -0.03070866141732283422, -1.653543307086614789 ) ) ;
#235 = EDGE_CURVE ( 'NONE', #329, #353, #30, .T. ) ;
#236 = ORIENTED_EDGE ( 'NONE', *, *, #439, .T. ) ;
#237 = LINE ( 'NONE', #638, #385 ) ;
#238 = ORIENTED_EDGE ( 'NONE', *, *, #239, .F. ) ;
#239 = EDGE_CURVE ( 'NONE', #604, #514, #320, .T. ) ;
#240 = CARTESIAN_POINT ( 'NONE',  ( -1.764566924999999564, -0.03070866141732283422, -1.272415131296955604 ) ) ;
#241 = ORIENTED_EDGE ( 'NONE', *, *, #18, .F. ) ;
#242 = FACE_BOUND ( 'NONE', #271, .T. ) ;
#243 = VECTOR ( 'NONE', #446, 39.37007874015748143 ) ;
#244 = ORIENTED_EDGE ( 'NONE', *, *, #390, .F. ) ;
#245 = PERSON_AND_ORGANIZATION ( #103, #560 ) ;
#246 = ORIENTED_EDGE ( 'NONE', *, *, #302, .T. ) ;
#247 = VERTEX_POINT ( 'NONE', #82 ) ;
#248 = CARTESIAN_POINT ( 'NONE',  ( -1.563976373818898091, -0.03070866141732283422, 0.000000000000000000 ) ) ;
#249 = EDGE_CURVE ( 'NONE', #329, #541, #340, .T. ) ;
#250 = CARTESIAN_POINT ( 'NONE',  ( -1.764566924999999564, 0.03070866141732283422, -1.272415131296955604 ) ) ;
#251 = DIRECTION ( 'NONE',  ( 0.000000000000000000, 0.000000000000000000, 1.000000000000000000 ) ) ;
#252 = FACE_OUTER_BOUND ( 'NONE', #589, .T. ) ;
#253 = DIRECTION ( 'NONE',  ( 0.000000000000000000, 1.000000000000000000, -0.000000000000000000 ) ) ;
#254 = AXIS2_PLACEMENT_3D ( 'NONE', #266, #274, #473 ) ;
#255 = CC_DESIGN_APPROVAL ( #394, ( #451 ) ) ;
#256 = APPLICATION_PROTOCOL_DEFINITION ( 'international standard', 'config_control_design', 1994, #224 ) ;
#257 = DIRECTION ( 'NONE',  ( 0.000000000000000000, -1.000000000000000000, 0.000000000000000000 ) ) ;
#258 = ORIENTED_EDGE ( 'NONE', *, *, #608, .T. ) ;
#259 = EDGE_CURVE ( 'NONE', #86, #448, #381, .T. ) ;
#260 = DATE_AND_TIME ( #117, #408 ) ;
#261 = DIRECTION ( 'NONE',  ( 0.000000000000000000, -1.000000000000000000, 0.000000000000000000 ) ) ;
#262 = PLANE ( 'NONE',  #254 ) ;
#263 = PRODUCT_DEFINITION ( 'UNKNOWN', '', #451, #146 ) ;
#264 = PRODUCT_DEFINITION_SHAPE ( 'NONE', 'NONE',  #263 ) ;
#265 = DIRECTION ( 'NONE',  ( -8.260587980841938780E-17, 0.000000000000000000, -1.000000000000000000 ) ) ;
#266 = CARTESIAN_POINT ( 'NONE',  ( 0.000000000000000000, -0.03070866141732283422, -1.272415131296955604 ) ) ;
#267 = EDGE_LOOP ( 'NONE', ( #338, #94, #71, #148 ) ) ;
#268 = VECTOR ( 'NONE', #470, 39.37007874015748143 ) ;
#269 = DIRECTION ( 'NONE',  ( -1.000000000000000000, 0.000000000000000000, 0.000000000000000000 ) ) ;
#270 = CARTESIAN_POINT ( 'NONE',  ( -1.839566925000000408, -0.03070866141732283422, -1.197415131296954982 ) ) ;
#271 = EDGE_LOOP ( 'NONE', ( #246, #468 ) ) ;
#272 = DIRECTION ( 'NONE',  ( -0.000000000000000000, 1.000000000000000000, -0.000000000000000000 ) ) ;
#273 = ORIENTED_EDGE ( 'NONE', *, *, #38, .T. ) ;
#274 = DIRECTION ( 'NONE',  ( 0.000000000000000000, 0.000000000000000000, 1.000000000000000000 ) ) ;
#275 = ORIENTED_EDGE ( 'NONE', *, *, #2, .F. ) ;
#276 = AXIS2_PLACEMENT_3D ( 'NONE', #585, #631, #192 ) ;
#277 = APPROVAL_PERSON_ORGANIZATION ( #341, #394, #442 ) ;
#278 = DIRECTION ( 'NONE',  ( 1.000000000000000000, -0.000000000000000000, 0.000000000000000000 ) ) ;
#279 = VERTEX_POINT ( 'NONE', #482 ) ;
#280 = EDGE_CURVE ( 'NONE', #100, #514, #39, .T. ) ;
#281 = CARTESIAN_POINT ( 'NONE',  ( 1.524606295078740015, -0.03070866141732283422, -1.653543307086614789 ) ) ;
#282 = VERTEX_POINT ( 'NONE', #99 ) ;
#283 = DIRECTION ( 'NONE',  ( -0.7071067811865475727, 0.000000000000000000, 0.7071067811865475727 ) ) ;
#284 = ORIENTED_EDGE ( 'NONE', *, *, #298, .F. ) ;
#285 = VECTOR ( 'NONE', #60, 39.37007874015748143 ) ;
#286 = FACE_OUTER_BOUND ( 'NONE', #433, .T. ) ;
#287 = EDGE_CURVE ( 'NONE', #576, #323, #44, .T. ) ;
#288 = ORIENTED_EDGE ( 'NONE', *, *, #487, .T. ) ;
#289 = CARTESIAN_POINT ( 'NONE',  ( 1.839566924999999742, 0.03070866141732283422, -1.653543307086614789 ) ) ;
#290 = ORIENTED_EDGE ( 'NONE', *, *, #136, .F. ) ;
#291 = LINE ( 'NONE', #595, #612 ) ;
#292 = ORIENTED_EDGE ( 'NONE', *, *, #510, .T. ) ;
#293 = COORDINATED_UNIVERSAL_TIME_OFFSET ( 7, 0, .BEHIND. ) ;
#294 = VECTOR ( 'NONE', #431, 39.37007874015748143 ) ;
#295 = DIRECTION ( 'NONE',  ( -0.000000000000000000, 1.000000000000000000, -0.000000000000000000 ) ) ;
#296 = ORIENTED_EDGE ( 'NONE', *, *, #2, .T. ) ;
#297 = CALENDAR_DATE ( 2025, 18, 10 ) ;
#298 = EDGE_CURVE ( 'NONE', #48, #636, #335, .T. ) ;
#299 = LINE ( 'NONE', #606, #370 ) ;
#300 = CARTESIAN_POINT ( 'NONE',  ( -1.764566925000000008, -0.03070866141732283422, 1.653543307086613678 ) ) ;
#301 = APPROVAL_DATE_TIME ( #110, #466 ) ;
#302 = EDGE_CURVE ( 'NONE', #490, #86, #623, .T. ) ;
#303 = DIRECTION ( 'NONE',  ( 0.000000000000000000, -1.000000000000000000, 0.000000000000000000 ) ) ;
#304 = ORIENTED_EDGE ( 'NONE', *, *, #136, .T. ) ;
#305 = DATE_AND_TIME ( #297, #88 ) ;
#306 = AXIS2_PLACEMENT_3D ( 'NONE', #415, #313, #616 ) ;
#307 = CARTESIAN_POINT ( 'NONE',  ( -1.764566924999999564, -0.03070866141732283422, -1.272415131296955604 ) ) ;
#308 = EDGE_CURVE ( 'NONE', #48, #100, #47, .T. ) ;
#309 = VECTOR ( 'NONE', #108, 39.37007874015748854 ) ;
#310 = DIRECTION ( 'NONE',  ( 0.000000000000000000, -0.000000000000000000, 1.000000000000000000 ) ) ;
#311 = LINE ( 'NONE', #498, #547 ) ;
#312 = FACE_OUTER_BOUND ( 'NONE', #584, .T. ) ;
#313 = DIRECTION ( 'NONE',  ( -0.000000000000000000, 1.000000000000000000, -0.000000000000000000 ) ) ;
#314 = ORIENTED_EDGE ( 'NONE', *, *, #481, .T. ) ;
#315 = DIRECTION ( 'NONE',  ( 8.260587980841938780E-17, 0.000000000000000000, 1.000000000000000000 ) ) ;
#316 = CARTESIAN_POINT ( 'NONE',  ( 1.599606295078739304, 0.03070866141732283422, -1.272415131296955604 ) ) ;
#317 = EDGE_LOOP ( 'NONE', ( #567, #594, #80, #201 ) ) ;
#318 = EDGE_CURVE ( 'NONE', #329, #368, #539, .T. ) ;
#319 = CARTESIAN_POINT ( 'NONE',  ( 1.839566924999999742, 0.03070866141732283422, -1.197415131296955648 ) ) ;
#320 = LINE ( 'NONE', #512, #9 ) ;
#321 = DIRECTION ( 'NONE',  ( 1.000000000000000000, -0.000000000000000000, 0.000000000000000000 ) ) ;
#322 = DIRECTION ( 'NONE',  ( 0.7071067811865475727, 0.000000000000000000, -0.7071067811865475727 ) ) ;
#323 = VERTEX_POINT ( 'NONE', #635 ) ;
#324 = CIRCLE ( 'NONE', #306, 0.05800000000000003764 ) ;
#325 = VECTOR ( 'NONE', #261, 39.37007874015748143 ) ;
#326 = DIRECTION ( 'NONE',  ( -0.000000000000000000, 1.000000000000000000, -0.000000000000000000 ) ) ;
#327 = EDGE_LOOP ( 'NONE', ( #284, #452, #37, #61 ) ) ;
#328 = FACE_OUTER_BOUND ( 'NONE', #628, .T. ) ;
#329 = VERTEX_POINT ( 'NONE', #281 ) ;
#330 = DIRECTION ( 'NONE',  ( -0.7071067811865501263, -0.000000000000000000, 0.7071067811865449082 ) ) ;
#331 = EDGE_LOOP ( 'NONE', ( #232, #273, #620, #54 ) ) ;
#332 = AXIS2_PLACEMENT_3D ( 'NONE', #533, #479, #437 ) ;
#333 = ADVANCED_FACE ( 'NONE', ( #231 ), #36, .F. ) ;
#334 = VECTOR ( 'NONE', #403, 39.37007874015748143 ) ;
#335 = LINE ( 'NONE', #289, #51 ) ;
#336 = ORIENTED_EDGE ( 'NONE', *, *, #522, .T. ) ;
#337 = DIRECTION ( 'NONE',  ( 0.000000000000000000, -1.000000000000000000, 0.000000000000000000 ) ) ;
#338 = ORIENTED_EDGE ( 'NONE', *, *, #28, .F. ) ;
#339 = FACE_OUTER_BOUND ( 'NONE', #75, .T. ) ;
#340 = LINE ( 'NONE', #363, #105 ) ;
#341 = PERSON_AND_ORGANIZATION ( #103, #560 ) ;
#342 = VECTOR ( 'NONE', #486, 39.37007874015748143 ) ;
#343 = CARTESIAN_POINT ( 'NONE',  ( -1.839566925000000408, 0.03070866141732283422, -1.653543307086614789 ) ) ;
#344 = SECURITY_CLASSIFICATION ( '', '', #354 ) ;
#345 = DIRECTION ( 'NONE',  ( 0.000000000000000000, 0.000000000000000000, 1.000000000000000000 ) ) ;
#346 = PRODUCT_RELATED_PRODUCT_CATEGORY ( 'detail', '', ( #513 ) ) ;
#347 = PERSON_AND_ORGANIZATION ( #103, #560 ) ;
#348 = LINE ( 'NONE', #147, #285 ) ;
#349 = DIRECTION ( 'NONE',  ( 0.7071067811865474617, 0.000000000000000000, -0.7071067811865474617 ) ) ;
#350 = MECHANICAL_CONTEXT ( 'NONE', #224, 'mechanical' ) ;
#351 = EDGE_CURVE ( 'NONE', #128, #34, #237, .T. ) ;
#352 = DIRECTION ( 'NONE',  ( 0.7071067811865450192, 0.000000000000000000, -0.7071067811865501263 ) ) ;
#353 = VERTEX_POINT ( 'NONE', #41 ) ;
#354 = SECURITY_CLASSIFICATION_LEVEL ( 'unclassified' ) ;
#355 = DIRECTION ( 'NONE',  ( 0.000000000000000000, 0.000000000000000000, 1.000000000000000000 ) ) ;
#356 = VECTOR ( 'NONE', #215, 39.37007874015748143 ) ;
#357 = CYLINDRICAL_SURFACE ( 'NONE', #163, 0.05799999999999976702 ) ;
#358 = APPROVAL_DATE_TIME ( #564, #68 ) ;
#359 = DIRECTION ( 'NONE',  ( 1.000000000000000000, 0.000000000000000000, -0.000000000000000000 ) ) ;
#360 = CARTESIAN_POINT ( 'NONE',  ( 0.000000000000000000, 0.03070866141732283422, 1.611543307086613419 ) ) ;
#361 = ORIENTED_EDGE ( 'NONE', *, *, #563, .F. ) ;
#362 = DIRECTION ( 'NONE',  ( 1.000000000000000000, 0.000000000000000000, -8.260587980841938780E-17 ) ) ;
#363 = CARTESIAN_POINT ( 'NONE',  ( 1.524606295078740015, -0.03070866141732283422, -1.653543307086614789 ) ) ;
#364 = ORIENTED_EDGE ( 'NONE', *, *, #149, .F. ) ;
#365 = ADVANCED_FACE ( 'NONE', ( #328 ), #93, .F. ) ;
#366 = DIRECTION ( 'NONE',  ( 0.000000000000000000, 1.000000000000000000, 0.000000000000000000 ) ) ;
#367 = DIRECTION ( 'NONE',  ( -1.000000000000000000, -0.000000000000000000, -0.000000000000000000 ) ) ;
#368 = VERTEX_POINT ( 'NONE', #593 ) ;
#369 = AXIS2_PLACEMENT_3D ( 'NONE', #525, #411, #407 ) ;
#370 = VECTOR ( 'NONE', #497, 39.37007874015748854 ) ;
#371 = CARTESIAN_POINT ( 'NONE',  ( -1.839566925000000408, 0.03070866141732283422, -1.653543307086614789 ) ) ;
#372 = FACE_OUTER_BOUND ( 'NONE', #188, .T. ) ;
#373 = ORIENTED_EDGE ( 'NONE', *, *, #491, .T. ) ;
#374 = CARTESIAN_POINT ( 'NONE',  ( -1.563976373818898091, 0.03070866141732283422, -1.653543307086614789 ) ) ;
#375 = ADVANCED_BREP_SHAPE_REPRESENTATION ( 'AV Bay PCB Outline supressed pin pads', ( #26, #476 ), #52 ) ;
#376 = LINE ( 'NONE', #248, #429 ) ;
#377 = EDGE_LOOP ( 'NONE', ( #8, #520, #275, #314 ) ) ;
#378 = VECTOR ( 'NONE', #330, 39.37007874015748143 ) ;
#379 = PLANE ( 'NONE',  #183 ) ;
#380 = ORIENTED_EDGE ( 'NONE', *, *, #235, .T. ) ;
#381 = LINE ( 'NONE', #579, #450 ) ;
#382 = ORIENTED_EDGE ( 'NONE', *, *, #412, .F. ) ;
#383 = FACE_OUTER_BOUND ( 'NONE', #327, .T. ) ;
#384 = ORIENTED_EDGE ( 'NONE', *, *, #259, .F. ) ;
#385 = VECTOR ( 'NONE', #536, 39.37007874015748854 ) ;
#386 = AXIS2_PLACEMENT_3D ( 'NONE', #389, #352, #257 ) ;
#387 = LINE ( 'NONE', #89, #518 ) ;
#388 = ORIENTED_EDGE ( 'NONE', *, *, #203, .T. ) ;
#389 = CARTESIAN_POINT ( 'NONE',  ( 1.599606295078739304, -0.03070866141732283422, -1.272415131296955604 ) ) ;
#390 = EDGE_CURVE ( 'NONE', #40, #42, #489, .T. ) ;
#391 = DIRECTION ( 'NONE',  ( 0.7071067811865475727, 0.000000000000000000, 0.7071067811865475727 ) ) ;
#392 = CYLINDRICAL_SURFACE ( 'NONE', #10, 0.05799999999999976702 ) ;
#393 = CARTESIAN_POINT ( 'NONE',  ( 0.000000000000000000, 0.03070866141732288973, 1.553543307086613812 ) ) ;
#394 = APPROVAL ( #4, 'UNSPECIFIED' ) ;
#395 = EDGE_CURVE ( 'NONE', #40, #135, #435, .T. ) ;
#396 = COORDINATED_UNIVERSAL_TIME_OFFSET ( 7, 0, .BEHIND. ) ;
#397 = PLANE ( 'NONE',  #386 ) ;
#398 = FACE_OUTER_BOUND ( 'NONE', #267, .T. ) ;
#399 = ADVANCED_FACE ( 'NONE', ( #383 ), #640, .F. ) ;
#400 = ORIENTED_EDGE ( 'NONE', *, *, #168, .T. ) ;
#401 = APPLICATION_PROTOCOL_DEFINITION ( 'international standard', 'config_control_design', 1994, #434 ) ;
#402 = EDGE_CURVE ( 'NONE', #152, #604, #387, .T. ) ;
#403 = DIRECTION ( 'NONE',  ( 0.000000000000000000, 1.000000000000000000, 0.000000000000000000 ) ) ;
#404 = ORIENTED_EDGE ( 'NONE', *, *, #587, .F. ) ;
#405 = PERSON_AND_ORGANIZATION ( #103, #560 ) ;
#406 = CARTESIAN_POINT ( 'NONE',  ( -1.764566924999999564, -0.03070866141732283422, -1.272415131296955604 ) ) ;
#407 = DIRECTION ( 'NONE',  ( -1.000000000000000000, 0.000000000000000000, -0.000000000000000000 ) ) ;
#408 = LOCAL_TIME ( 10, 42, 43.00000000000000000, #396 ) ;
#409 = ORIENTED_EDGE ( 'NONE', *, *, #249, .F. ) ;
#410 = CARTESIAN_POINT ( 'NONE',  ( -1.839566925000000186, 0.03070866141732283422, 1.653543307086613678 ) ) ;
#411 = DIRECTION ( 'NONE',  ( 0.000000000000000000, 0.000000000000000000, -1.000000000000000000 ) ) ;
#412 = EDGE_CURVE ( 'NONE', #100, #114, #184, .T. ) ;
#413 = ORIENTED_EDGE ( 'NONE', *, *, #318, .F. ) ;
#414 = DIRECTION ( 'NONE',  ( -0.7071067811865474617, 0.000000000000000000, -0.7071067811865474617 ) ) ;
#415 = CARTESIAN_POINT ( 'NONE',  ( 0.000000000000000000, -0.03070866141732282728, 1.553543307086613812 ) ) ;
#416 = ORIENTED_EDGE ( 'NONE', *, *, #191, .T. ) ;
#417 = LINE ( 'NONE', #571, #559 ) ;
#418 = ORIENTED_EDGE ( 'NONE', *, *, #280, .F. ) ;
#419 = VECTOR ( 'NONE', #337, 39.37007874015748143 ) ;
#420 = CC_DESIGN_APPROVAL ( #466, ( #344 ) ) ;
#421 = ADVANCED_FACE ( 'NONE', ( #132, #286 ), #379, .T. ) ;
#422 = CARTESIAN_POINT ( 'NONE',  ( -1.764566925000000008, 0.03070866141732283422, 1.653543307086613678 ) ) ;
#423 = ORIENTED_EDGE ( 'NONE', *, *, #35, .F. ) ;
#424 = CC_DESIGN_DATE_AND_TIME_ASSIGNMENT ( #260, #457, ( #344 ) ) ;
#425 = DIRECTION ( 'NONE',  ( 0.000000000000000000, 1.000000000000000000, 0.000000000000000000 ) ) ;
#426 = ORIENTED_EDGE ( 'NONE', *, *, #471, .F. ) ;
#427 = CARTESIAN_POINT ( 'NONE',  ( 0.000000000000000000, -0.03070866141732283422, -1.272415131296955604 ) ) ;
#428 = ORIENTED_EDGE ( 'NONE', *, *, #28, .T. ) ;
#429 = VECTOR ( 'NONE', #195, 39.37007874015748143 ) ;
#430 = VECTOR ( 'NONE', #303, 39.37007874015748143 ) ;
#431 = DIRECTION ( 'NONE',  ( 0.000000000000000000, 1.000000000000000000, 0.000000000000000000 ) ) ;
#432 = EDGE_CURVE ( 'NONE', #353, #576, #376, .T. ) ;
#433 = EDGE_LOOP ( 'NONE', ( #31, #236, #193, #258, #142, #506, #475, #436, #373, #219, #492, #534, #6, #292 ) ) ;
#434 = APPLICATION_CONTEXT ( 'configuration controlled 3d designs of mechanical parts and assemblies' ) ;
#435 = LINE ( 'NONE', #427, #580 ) ;
#436 = ORIENTED_EDGE ( 'NONE', *, *, #515, .T. ) ;
#437 = DIRECTION ( 'NONE',  ( 0.000000000000000000, 0.000000000000000000, 1.000000000000000000 ) ) ;
#438 = ORIENTED_EDGE ( 'NONE', *, *, #318, .T. ) ;
#439 = EDGE_CURVE ( 'NONE', #229, #48, #550, .T. ) ;
#440 = CC_DESIGN_APPROVAL ( #68, ( #263 ) ) ;
#441 = DIRECTION ( 'NONE',  ( 0.7071067811865475727, 0.000000000000000000, 0.7071067811865475727 ) ) ;
#442 = APPROVAL_ROLE ( '' ) ;
#443 = CARTESIAN_POINT ( 'NONE',  ( 1.709055116043300293, 0.03070866141732283422, 1.709055116043312950 ) ) ;
#444 = CARTESIAN_POINT ( 'NONE',  ( -1.455695752557926381, -0.03070866141732283422, -1.455695752557926381 ) ) ;
#445 = PERSON_AND_ORGANIZATION_ROLE ( 'design_owner' ) ;
#446 = DIRECTION ( 'NONE',  ( -1.000000000000000000, -0.000000000000000000, -0.000000000000000000 ) ) ;
#447 = DIRECTION ( 'NONE',  ( 0.000000000000000000, 0.000000000000000000, 1.000000000000000000 ) ) ;
#448 = VERTEX_POINT ( 'NONE', #1 ) ;
#449 = PERSON_AND_ORGANIZATION ( #103, #560 ) ;
#450 = VECTOR ( 'NONE', #326, 39.37007874015748143 ) ;
#451 = PRODUCT_DEFINITION_FORMATION_WITH_SPECIFIED_SOURCE ( 'ANY', '', #513, .NOT_KNOWN. ) ;
#452 = ORIENTED_EDGE ( 'NONE', *, *, #308, .T. ) ;
#453 = ADVANCED_FACE ( 'NONE', ( #339 ), #397, .T. ) ;
#454 = APPROVAL_DATE_TIME ( #210, #394 ) ;
#455 = CARTESIAN_POINT ( 'NONE',  ( 1.839566924999999742, -0.03070866141732283422, -1.197415131296955648 ) ) ;
#456 = ORIENTED_EDGE ( 'NONE', *, *, #35, .T. ) ;
#457 = DATE_TIME_ROLE ( 'classification_date' ) ;
#458 = FACE_OUTER_BOUND ( 'NONE', #317, .T. ) ;
#459 = LINE ( 'NONE', #33, #63 ) ;
#460 = ADVANCED_FACE ( 'NONE', ( #252 ), #392, .F. ) ;
#461 = CARTESIAN_POINT ( 'NONE',  ( -1.563976373818898091, -0.03070866141732283422, -1.347415131296955559 ) ) ;
#462 = DIRECTION ( 'NONE',  ( 0.000000000000000000, 0.000000000000000000, 1.000000000000000000 ) ) ;
#463 = VECTOR ( 'NONE', #19, 39.37007874015748854 ) ;
#464 = ORIENTED_EDGE ( 'NONE', *, *, #517, .T. ) ;
#465 = CARTESIAN_POINT ( 'NONE',  ( 1.524606295078740015, -0.03070866141732283422, -1.347415131296954449 ) ) ;
#466 = APPROVAL ( #611, 'UNSPECIFIED' ) ;
#467 = PLANE ( 'NONE',  #484 ) ;
#468 = ORIENTED_EDGE ( 'NONE', *, *, #230, .T. ) ;
#469 = LINE ( 'NONE', #23, #463 ) ;
#470 = DIRECTION ( 'NONE',  ( -0.000000000000000000, 1.000000000000000000, -0.000000000000000000 ) ) ;
#471 = EDGE_CURVE ( 'NONE', #114, #229, #156, .T. ) ;
#472 = EDGE_LOOP ( 'NONE', ( #304, #528, #173, #21 ) ) ;
#473 = DIRECTION ( 'NONE',  ( 1.000000000000000000, 0.000000000000000000, -0.000000000000000000 ) ) ;
#474 = VECTOR ( 'NONE', #96, 39.37007874015748143 ) ;
#475 = ORIENTED_EDGE ( 'NONE', *, *, #191, .F. ) ;
#476 = AXIS2_PLACEMENT_3D ( 'NONE', #496, #251, #160 ) ;
#477 = DIRECTION ( 'NONE',  ( 0.000000000000000000, 1.000000000000000000, -0.000000000000000000 ) ) ;
#478 = ORIENTED_EDGE ( 'NONE', *, *, #522, .F. ) ;
#479 = DIRECTION ( 'NONE',  ( -0.000000000000000000, 1.000000000000000000, -0.000000000000000000 ) ) ;
#480 = ORIENTED_EDGE ( 'NONE', *, *, #38, .F. ) ;
#481 = EDGE_CURVE ( 'NONE', #190, #128, #291, .T. ) ;
#482 = CARTESIAN_POINT ( 'NONE',  ( -1.638976373818897825, 0.03070866141732283422, -1.272415131296955604 ) ) ;
#483 = ORIENTED_EDGE ( 'NONE', *, *, #395, .F. ) ;
#484 = AXIS2_PLACEMENT_3D ( 'NONE', #619, #322, #218 ) ;
#485 = APPROVAL_PERSON_ORGANIZATION ( #449, #68, #597 ) ;
#486 = DIRECTION ( 'NONE',  ( -8.260587980841938780E-17, -0.000000000000000000, -1.000000000000000000 ) ) ;
#487 = EDGE_CURVE ( 'NONE', #42, #279, #348, .T. ) ;
#488 = ORIENTED_EDGE ( 'NONE', *, *, #510, .F. ) ;
#489 = LINE ( 'NONE', #240, #474 ) ;
#490 = VERTEX_POINT ( 'NONE', #545 ) ;
#491 = EDGE_CURVE ( 'NONE', #159, #323, #205, .T. ) ;
#492 = ORIENTED_EDGE ( 'NONE', *, *, #487, .F. ) ;
#493 = CLOSED_SHELL ( 'NONE', ( #460, #581, #421, #553, #399, #573, #85, #122, #333, #621, #605, #77, #185, #174, #365, #7, #453, #13 ) ) ;
#494 = CARTESIAN_POINT ( 'NONE',  ( 0.000000000000000000, 0.03070866141732283422, 1.553543307086613812 ) ) ;
#495 = FACE_OUTER_BOUND ( 'NONE', #92, .T. ) ;
#496 = CARTESIAN_POINT ( 'NONE',  ( 0.000000000000000000, 0.000000000000000000, 0.000000000000000000 ) ) ;
#497 = DIRECTION ( 'NONE',  ( 0.7071067811865500152, -0.000000000000000000, 0.7071067811865447972 ) ) ;
#498 = CARTESIAN_POINT ( 'NONE',  ( -1.839566925000000186, 0.03070866141732283422, 1.578543307086613723 ) ) ;
#499 = SHAPE_DEFINITION_REPRESENTATION ( #264, #375 ) ;
#500 = FACE_OUTER_BOUND ( 'NONE', #186, .T. ) ;
#501 = LINE ( 'NONE', #119, #141 ) ;
#502 = CALENDAR_DATE ( 2025, 18, 10 ) ;
#503 = AXIS2_PLACEMENT_3D ( 'NONE', #393, #209, #345 ) ;
#504 = AXIS2_PLACEMENT_3D ( 'NONE', #24, #627, #577 ) ;
#505 = CIRCLE ( 'NONE', #226, 0.05799999999999948946 ) ;
#506 = ORIENTED_EDGE ( 'NONE', *, *, #351, .T. ) ;
#507 = PERSON_AND_ORGANIZATION_ROLE ( 'creator' ) ;
#508 = PLANE ( 'NONE',  #116 ) ;
#509 = CARTESIAN_POINT ( 'NONE',  ( 0.000000000000000000, 0.03070866141732283422, 1.553543307086613812 ) ) ;
#510 = EDGE_CURVE ( 'NONE', #247, #524, #609, .T. ) ;
#511 = LINE ( 'NONE', #410, #591 ) ;
#512 = CARTESIAN_POINT ( 'NONE',  ( 1.839566924999999742, -0.03070866141732283422, -1.197415131296955426 ) ) ;
#513 = PRODUCT ( 'AV Bay PCB Outline supressed pin pads', 'AV Bay PCB Outline supressed pin pads', '', ( #350 ) ) ;
#514 = VERTEX_POINT ( 'NONE', #455 ) ;
#515 = EDGE_CURVE ( 'NONE', #541, #159, #15, .T. ) ;
#516 = CARTESIAN_POINT ( 'NONE',  ( 0.000000000000000000, -0.03070866141732283422, -1.272415131296955604 ) ) ;
#517 = EDGE_CURVE ( 'NONE', #368, #190, #299, .T. ) ;
#518 = VECTOR ( 'NONE', #228, 39.37007874015748143 ) ;
#519 = DIRECTION ( 'NONE',  ( -0.7071067811865474617, 0.000000000000000000, 0.7071067811865474617 ) ) ;
#520 = ORIENTED_EDGE ( 'NONE', *, *, #402, .T. ) ;
#521 =( LENGTH_UNIT ( ) NAMED_UNIT ( * ) SI_UNIT ( $, .METRE. ) );
#522 = EDGE_CURVE ( 'NONE', #282, #448, #505, .T. ) ;
#523 = FACE_OUTER_BOUND ( 'NONE', #472, .T. ) ;
#524 = VERTEX_POINT ( 'NONE', #200 ) ;
#525 = CARTESIAN_POINT ( 'NONE',  ( -1.839566925000000186, 0.03070866141732283422, 1.653543307086613678 ) ) ;
#526 = ORIENTED_EDGE ( 'NONE', *, *, #608, .F. ) ;
#527 = FACE_OUTER_BOUND ( 'NONE', #83, .T. ) ;
#528 = ORIENTED_EDGE ( 'NONE', *, *, #471, .T. ) ;
#529 = LOCAL_TIME ( 10, 42, 43.00000000000000000, #165 ) ;
#530 = DIRECTION ( 'NONE',  ( 0.000000000000000000, 0.000000000000000000, 1.000000000000000000 ) ) ;
#531 = ORIENTED_EDGE ( 'NONE', *, *, #432, .F. ) ;
#532 = EDGE_CURVE ( 'NONE', #279, #135, #151, .T. ) ;
#533 = CARTESIAN_POINT ( 'NONE',  ( 0.000000000000000000, -0.03070866141732282728, 1.553543307086613812 ) ) ;
#534 = ORIENTED_EDGE ( 'NONE', *, *, #587, .T. ) ;
#535 = CC_DESIGN_PERSON_AND_ORGANIZATION_ASSIGNMENT ( #548, #199, ( #344 ) ) ;
#536 = DIRECTION ( 'NONE',  ( -0.7071067811865500152, 0.000000000000000000, -0.7071067811865447972 ) ) ;
#537 = ORIENTED_EDGE ( 'NONE', *, *, #168, .F. ) ;
#538 = LOCAL_TIME ( 10, 42, 43.00000000000000000, #293 ) ;
#539 = LINE ( 'NONE', #583, #76 ) ;
#540 = EDGE_CURVE ( 'NONE', #543, #247, #542, .T. ) ;
#541 = VERTEX_POINT ( 'NONE', #643 ) ;
#542 = LINE ( 'NONE', #343, #549 ) ;
#543 = VERTEX_POINT ( 'NONE', #49 ) ;
#544 = CC_DESIGN_DATE_AND_TIME_ASSIGNMENT ( #305, #17, ( #263 ) ) ;
#545 = CARTESIAN_POINT ( 'NONE',  ( 0.000000000000000000, -0.03070866141732282728, 1.611543307086613863 ) ) ;
#546 = CARTESIAN_POINT ( 'NONE',  ( 1.524606295078740015, 0.03070866141732283422, -1.347415131296954449 ) ) ;
#547 = VECTOR ( 'NONE', #607, 39.37007874015748143 ) ;
#548 = PERSON_AND_ORGANIZATION ( #103, #560 ) ;
#549 = VECTOR ( 'NONE', #101, 39.37007874015748143 ) ;
#550 = LINE ( 'NONE', #443, #153 ) ;
#551 = DIRECTION ( 'NONE',  ( 0.000000000000000000, -1.000000000000000000, 0.000000000000000000 ) ) ;
#552 = CALENDAR_DATE ( 2025, 18, 10 ) ;
#553 = ADVANCED_FACE ( 'NONE', ( #242, #500 ), #78, .F. ) ;
#554 = CARTESIAN_POINT ( 'NONE',  ( -1.638976373818897825, -0.03070866141732283422, -1.272415131296955604 ) ) ;
#555 = CARTESIAN_POINT ( 'NONE',  ( 1.839566925000000186, 0.03070866141732283422, 1.578543307086613057 ) ) ;
#556 = CARTESIAN_POINT ( 'NONE',  ( 1.764566925000000008, 0.03070866141732283422, 1.653543307086613678 ) ) ;
#557 = DIRECTION ( 'NONE',  ( -0.000000000000000000, 1.000000000000000000, 0.000000000000000000 ) ) ;
#558 = EDGE_LOOP ( 'NONE', ( #416, #72, #413, #45 ) ) ;
#559 = VECTOR ( 'NONE', #177, 39.37007874015748143 ) ;
#560 = ORGANIZATION ( 'UNSPECIFIED', 'UNSPECIFIED', '' ) ;
#561 = DIRECTION ( 'NONE',  ( 0.7071067811865474617, -0.000000000000000000, -0.7071067811865474617 ) ) ;
#562 = PLANE ( 'NONE',  #115 ) ;
#563 = EDGE_CURVE ( 'NONE', #145, #216, #220, .T. ) ;
#564 = DATE_AND_TIME ( #158, #65 ) ;
#565 = CARTESIAN_POINT ( 'NONE',  ( 1.518491028148477362, 0.03070866141732283422, -1.518491028148477362 ) ) ;
#566 = CARTESIAN_POINT ( 'NONE',  ( -1.839566925000000408, -0.03070866141732283422, -1.653543307086614789 ) ) ;
#567 = ORIENTED_EDGE ( 'NONE', *, *, #432, .T. ) ;
#568 = CARTESIAN_POINT ( 'NONE',  ( 0.000000000000000000, 0.03070866141732283422, -1.272415131296955604 ) ) ;
#569 = CARTESIAN_POINT ( 'NONE',  ( -1.839566925000000408, 0.03070866141732283422, -1.653543307086614789 ) ) ;
#570 = VECTOR ( 'NONE', #551, 39.37007874015748143 ) ;
#571 = CARTESIAN_POINT ( 'NONE',  ( -1.839566925000000186, -0.03070866141732283422, 1.653543307086613678 ) ) ;
#572 = ORIENTED_EDGE ( 'NONE', *, *, #515, .F. ) ;
#573 = ADVANCED_FACE ( 'NONE', ( #25 ), #508, .F. ) ;
#574 = LINE ( 'NONE', #565, #154 ) ;
#575 = CARTESIAN_POINT ( 'NONE',  ( 1.524606295078740015, 0.03070866141732283422, -0.000000000000000000 ) ) ;
#576 = VERTEX_POINT ( 'NONE', #461 ) ;
#577 = DIRECTION ( 'NONE',  ( 0.000000000000000000, -1.000000000000000000, 0.000000000000000000 ) ) ;
#578 = ORIENTED_EDGE ( 'NONE', *, *, #351, .F. ) ;
#579 = CARTESIAN_POINT ( 'NONE',  ( 7.102951435054617466E-18, 0.03070866141732283422, 1.495543307086613982 ) ) ;
#580 = VECTOR ( 'NONE', #278, 39.37007874015748143 ) ;
#581 = ADVANCED_FACE ( 'NONE', ( #123 ), #176, .F. ) ;
#582 = VERTEX_POINT ( 'NONE', #211 ) ;
#583 = CARTESIAN_POINT ( 'NONE',  ( 1.524606295078740015, -0.03070866141732283422, 0.000000000000000000 ) ) ;
#584 = EDGE_LOOP ( 'NONE', ( #288, #633, #483, #133 ) ) ;
#585 = CARTESIAN_POINT ( 'NONE',  ( 1.839566924999999742, 0.03070866141732283422, -1.653543307086614789 ) ) ;
#586 = ORIENTED_EDGE ( 'NONE', *, *, #302, .F. ) ;
#587 = EDGE_CURVE ( 'NONE', #42, #543, #469, .T. ) ;
#588 = DIRECTION ( 'NONE',  ( -8.260587980841938780E-17, -0.000000000000000000, -1.000000000000000000 ) ) ;
#589 = EDGE_LOOP ( 'NONE', ( #213, #630, #456, #537 ) ) ;
#590 = VECTOR ( 'NONE', #644, 39.37007874015748854 ) ;
#591 = VECTOR ( 'NONE', #169, 39.37007874015748143 ) ;
#592 = VECTOR ( 'NONE', #315, 39.37007874015748143 ) ;
#593 = CARTESIAN_POINT ( 'NONE',  ( 1.524606295078740015, -0.03070866141732283422, -1.347415131296954449 ) ) ;
#594 = ORIENTED_EDGE ( 'NONE', *, *, #287, .T. ) ;
#595 = CARTESIAN_POINT ( 'NONE',  ( 1.599606295078739304, 0.03070866141732283422, -1.272415131296955604 ) ) ;
#596 = CARTESIAN_POINT ( 'NONE',  ( -1.563976373818898091, -0.03070866141732283422, -1.347415131296955559 ) ) ;
#597 = APPROVAL_ROLE ( '' ) ;
#598 = CARTESIAN_POINT ( 'NONE',  ( -1.563976373818898091, 0.03070866141732283422, 0.000000000000000000 ) ) ;
#599 = PLANE ( 'NONE',  #632 ) ;
#600 = EDGE_CURVE ( 'NONE', #145, #40, #618, .T. ) ;
#601 = AXIS2_PLACEMENT_3D ( 'NONE', #143, #283, #477 ) ;
#602 =( NAMED_UNIT ( * ) PLANE_ANGLE_UNIT ( ) SI_UNIT ( $, .RADIAN. ) );
#603 = DIRECTION ( 'NONE',  ( 0.000000000000000000, 0.000000000000000000, 1.000000000000000000 ) ) ;
#604 = VERTEX_POINT ( 'NONE', #70 ) ;
#605 = ADVANCED_FACE ( 'NONE', ( #312 ), #217, .F. ) ;
#606 = CARTESIAN_POINT ( 'NONE',  ( 1.436010713187841459, -0.03070866141732283422, -1.436010713187851895 ) ) ;
#607 = DIRECTION ( 'NONE',  ( 0.000000000000000000, 1.000000000000000000, 0.000000000000000000 ) ) ;
#608 = EDGE_CURVE ( 'NONE', #636, #152, #574, .T. ) ;
#609 = LINE ( 'NONE', #161, #309 ) ;
#610 = LINE ( 'NONE', #198, #202 ) ;
#611 = APPROVAL_STATUS ( 'not_yet_approved' ) ;
#612 = VECTOR ( 'NONE', #57, 39.37007874015748143 ) ;
#613 = CC_DESIGN_PERSON_AND_ORGANIZATION_ASSIGNMENT ( #347, #507, ( #263 ) ) ;
#614 = FACE_OUTER_BOUND ( 'NONE', #377, .T. ) ;
#615 = DIRECTION ( 'NONE',  ( 1.000000000000000000, 0.000000000000000000, -0.000000000000000000 ) ) ;
#616 = DIRECTION ( 'NONE',  ( 0.000000000000000000, 0.000000000000000000, 1.000000000000000000 ) ) ;
#617 = ORIENTED_EDGE ( 'NONE', *, *, #395, .T. ) ;
#618 = LINE ( 'NONE', #406, #164 ) ;
#619 = CARTESIAN_POINT ( 'NONE',  ( -1.764566925000000008, 0.03070866141732283422, 1.653543307086613678 ) ) ;
#620 = ORIENTED_EDGE ( 'NONE', *, *, #540, .F. ) ;
#621 = ADVANCED_FACE ( 'NONE', ( #458 ), #29, .T. ) ;
#622 = CARTESIAN_POINT ( 'NONE',  ( 0.000000000000000000, -0.03070866141732283422, 0.000000000000000000 ) ) ;
#623 = CIRCLE ( 'NONE', #332, 0.05800000000000003764 ) ;
#624 = PLANE ( 'NONE',  #369 ) ;
#625 = AXIS2_PLACEMENT_3D ( 'NONE', #214, #269, #355 ) ;
#626 = EDGE_LOOP ( 'NONE', ( #384, #586, #400, #336 ) ) ;
#627 = DIRECTION ( 'NONE',  ( -0.7071067811865449082, -0.000000000000000000, -0.7071067811865501263 ) ) ;
#628 = EDGE_LOOP ( 'NONE', ( #238, #641, #526, #222 ) ) ;
#629 = DIRECTION ( 'NONE',  ( 0.000000000000000000, -0.000000000000000000, 1.000000000000000000 ) ) ;
#630 = ORIENTED_EDGE ( 'NONE', *, *, #259, .T. ) ;
#631 = DIRECTION ( 'NONE',  ( -1.000000000000000000, 0.000000000000000000, 8.260587980841938780E-17 ) ) ;
#632 = AXIS2_PLACEMENT_3D ( 'NONE', #596, #441, #253 ) ;
#633 = ORIENTED_EDGE ( 'NONE', *, *, #532, .T. ) ;
#634 = EDGE_CURVE ( 'NONE', #34, #368, #120, .T. ) ;
#635 = CARTESIAN_POINT ( 'NONE',  ( -1.563976373818898091, 0.03070866141732283422, -1.347415131296955559 ) ) ;
#636 = VERTEX_POINT ( 'NONE', #319 ) ;
#637 = EDGE_CURVE ( 'NONE', #524, #229, #511, .T. ) ;
#638 = CARTESIAN_POINT ( 'NONE',  ( 1.599606295078739304, 0.03070866141732283422, -1.272415131296955604 ) ) ;
#639 = ORIENTED_EDGE ( 'NONE', *, *, #308, .F. ) ;
#640 = PLANE ( 'NONE',  #276 ) ;
#641 = ORIENTED_EDGE ( 'NONE', *, *, #402, .F. ) ;
#642 = APPROVAL_PERSON_ORGANIZATION ( #405, #466, #155 ) ;
#643 = CARTESIAN_POINT ( 'NONE',  ( 1.524606295078740015, 0.03070866141732283422, -1.653543307086614789 ) ) ;
#644 = DIRECTION ( 'NONE',  ( -0.7071067811865474617, 0.000000000000000000, -0.7071067811865474617 ) ) ;
ENDSEC;
END-ISO-10303-21;
